<?xml version="1.0" encoding="UTF-8"?>
<svg width="101px" height="42px" viewBox="0 0 101 42" version="1.1" xmlns="http://www.w3.org/2000/svg" xmlns:xlink="http://www.w3.org/1999/xlink">
    <!-- Generator: Sketch 47.1 (45422) - http://www.bohemiancoding.com/sketch -->
    <title>Wufoo_Logo_White</title>
    <desc>Created with Sketch.</desc>
    <defs></defs>
    <g id="Symbols-&amp;-Styles" stroke="none" stroke-width="1" fill="none" fill-rule="evenodd">
        <g id="Wufoo_Logo_White" fill="#FFFFFE">
            <path d="M9.33738608,26.6577231 L0.196886076,5.8464 L6.39624051,4.63098462 L9.19931013,12.4617231 C10.065481,14.9106462 11.0051646,17.7065538 11.7601076,19.9105846 L11.8214747,19.8963692 C11.6993797,17.3699077 11.649519,14.6657538 11.6105253,11.8892308 L11.4487975,3.63978462 L17.6206646,2.42113846 L20.5713987,10.5297231 C21.4407658,12.9734769 22.1573544,15.1516615 22.9161329,17.5501846 L22.9819747,17.5379077 C22.8291962,15.0172615 22.7211646,12.3887077 22.6099367,9.72655385 L22.3484873,1.49778462 L28.2039304,0.348923077 L27.0820633,23.1704308 L20.7881013,24.4091077 L17.7044051,16.1564308 C17.0185,14.3090769 16.3428228,12.3383077 15.5546392,9.80538462 L15.4932722,9.81701538 C15.6294304,12.4416923 15.7438544,14.5675385 15.7272342,16.5499385 L15.7323481,25.3996615 L9.33738608,26.6577231" id="Fill-1"></path>
            <path d="M34.5209051,6.7452 L32.7847278,19.2340615 C32.3212785,22.5585231 33.1906456,24.5796923 35.4816835,24.9053538 C37.8040443,25.2342462 39.1707405,23.7009231 39.6540063,20.2110462 L41.3933797,7.72283077 L47.2258101,8.55313846 L45.5369367,20.6827385 C44.5985316,27.4634769 40.7650063,30.4092923 34.6730443,29.5440923 C28.7376962,28.7015077 26.0324304,24.9589846 27.0155823,17.9172 L28.6820823,5.92006154 L34.5209051,6.7452" id="Fill-2"></path>
            <polyline id="Fill-3" points="46.1205633 3.47695385 60.1704304 2.29190769 60.5699557 7.14646154 52.3927911 7.83978462 52.7258354 11.9028 60.4203734 11.2572923 60.817981 16.0472308 53.126 16.6959692 53.8151013 25.0966154 47.9398418 25.5967385 46.1205633 3.47695385"></polyline>
            <path d="M71.3954937,23.7991385 C74.2254114,23.7991385 75.8893544,21.0368308 75.8893544,17.0184 C75.8893544,13.2028615 74.1979241,10.3055077 71.3309304,10.3055077 C68.4978165,10.3055077 66.7699494,13.2028615 66.7699494,17.0494154 C66.7367089,21.0368308 68.4978165,23.7991385 71.3309304,23.7991385 L71.3954937,23.7991385 Z M71.1008038,28.5083077 C64.2922532,28.5083077 60.5482215,23.3442462 60.5482215,17.1844615 C60.5482215,10.7326154 64.7199051,5.59698462 71.4587785,5.59698462 C78.5313354,5.59698462 82.1085253,10.8954462 82.1085253,16.8193846 C82.1085253,23.9677846 77.8754747,28.5083077 71.1366013,28.5083077 L71.1008038,28.5083077 L71.1008038,28.5083077 Z" id="Fill-4"></path>
            <path d="M89.9309114,18.6105231 C92.7697785,18.6105231 94.4305253,15.8424 94.4305253,11.8239692 C94.4305253,8.00584615 92.7358987,5.11172308 89.8669873,5.11172308 C87.0364304,5.11172308 85.3085633,8.00584615 85.3085633,11.8608 C85.2753228,15.8424 87.0364304,18.6105231 89.8669873,18.6105231 L89.9309114,18.6105231 Z M89.6413354,23.3164615 C82.8308671,23.3164615 79.0868354,18.1446462 79.0868354,11.9900308 C79.0868354,5.53818462 83.258519,0.401907692 89.9973924,0.401907692 C97.0699494,0.401907692 100.647139,5.70101538 100.647139,11.6281846 C100.647139,18.7733538 96.4166456,23.3164615 89.6752152,23.3164615 L89.6413354,23.3164615 L89.6413354,23.3164615 Z" id="Fill-5"></path>
            <path d="M28.160462,37.758 C28.160462,38.6341846 28.6469241,38.9902154 29.1353038,38.9902154 C29.7860506,38.9902154 30.2277658,38.4610154 30.2277658,37.4200615 C30.2277658,36.3978462 29.8218481,35.9048308 29.1532025,35.9048308 C28.6469241,35.9048308 28.160462,36.3060923 28.160462,37.1822769 L28.160462,37.758 Z M28.160462,35.9132308 C28.3311392,35.3749846 28.8732152,35.028 29.4964747,35.028 C30.7161456,35.028 31.3662532,36.0321231 31.3662532,37.4013231 C31.3662532,38.8448308 30.6074747,39.8399077 29.4242405,39.8399077 C28.7741329,39.8399077 28.2416456,39.4929231 28.0786392,38.9081538 L27.9520696,39.7300615 L27.0488228,39.7300615 L27.0488228,33.1386462 L28.160462,33.1386462 L28.160462,35.9132308 L28.160462,35.9132308 Z" id="Fill-6"></path>
            <path d="M35.1889114,35.1372 L36.2724241,35.1372 L34.6014494,39.9122769 C34.140557,41.2091077 33.6080696,41.6472 32.777057,41.6472 C32.4523228,41.6472 32.1544367,41.5464 31.9645823,41.4281538 L32.1544367,40.5700615 C32.3340633,40.698 32.4791709,40.7613231 32.6869241,40.7613231 C33.0659937,40.7613231 33.2468987,40.5791077 33.4904494,39.8941846 L31.8284241,35.1372 L33.0033481,35.1372 L34.0683228,38.6251385 L34.0868608,38.6251385 L35.1889114,35.1372" id="Fill-7"></path>
            <path d="M38.7763291,38.1773538 L39.7792975,37.7948308 C39.8962785,38.5159385 40.4741519,38.9352923 41.1792342,38.9352923 C41.7935443,38.9352923 42.2895949,38.6613231 42.2895949,38.0772 C42.2895949,36.7448308 39.0301076,37.6391077 39.0301076,35.3562462 C39.0301076,34.2241846 40.0049494,33.5211692 41.1971329,33.5211692 C42.3810063,33.5211692 43.2024304,34.0238769 43.3833354,35.1100615 L42.353519,35.3749846 C42.2723354,34.7721231 41.811443,34.4160923 41.2060823,34.4160923 C40.5649241,34.4160923 40.1583671,34.7630769 40.1583671,35.2657846 C40.1583671,36.6078462 43.4287215,35.6670462 43.4287215,38.0132308 C43.4287215,39.2002154 42.3899557,39.8399077 41.1696456,39.8399077 C39.9058671,39.8399077 39.0026203,39.2189538 38.7763291,38.1773538" id="Fill-8"></path>
            <path d="M47.2411519,38.8719692 C47.034038,39.5200615 46.5181709,39.8399077 45.8233165,39.8399077 C45.0741266,39.8399077 44.4144304,39.3643385 44.4144304,38.3608615 L44.4144304,35.1372 L45.5254304,35.1372 L45.5254304,38.1049846 C45.5254304,38.6341846 45.7868797,38.9449846 46.2567215,38.9449846 C46.7719494,38.9449846 47.1868165,38.5792615 47.1868165,37.7302154 L47.1868165,35.1372 L48.3074051,35.1372 L48.3074051,39.7300615 L47.3766709,39.7300615 L47.2411519,38.8719692" id="Fill-9"></path>
            <path d="M52.3371772,36.2149846 C52.2285063,36.1788 52.0386519,36.1510154 51.8762848,36.1510154 C51.2440759,36.1510154 50.7563354,36.6162462 50.7563354,37.5111692 L50.7563354,39.7300615 L49.6453354,39.7300615 L49.6453354,35.1372 L50.585019,35.1372 L50.7109494,36.2511692 C50.9008038,35.448 51.5426013,34.9000615 52.400462,35.0641846 L52.3371772,36.2149846" id="Fill-10"></path>
            <polyline id="Fill-11" points="55.0660949 38.5159385 56.1770949 35.1372 57.2522975 35.1372 55.5896329 39.7300615 54.4792722 39.7300615 52.8076582 35.1372 53.981943 35.1372 55.047557 38.5159385 55.0660949 38.5159385"></polyline>
            <path d="M60.6581709,37.0091077 C60.666481,36.9367385 60.666481,36.8449846 60.666481,36.7810154 C60.666481,36.2692615 60.3775443,35.8402154 59.8271582,35.8402154 C59.2307468,35.8402154 58.851038,36.2789538 58.7788038,37.0091077 L60.6581709,37.0091077 Z M60.7572532,38.2691077 L61.6783987,38.5702154 C61.4342089,39.4651385 60.6760696,39.8399077 59.8354684,39.8399077 C58.5263038,39.8399077 57.6952911,38.9818154 57.6952911,37.4659385 C57.6952911,35.9681538 58.5263038,35.028 59.845057,35.028 C61.0826266,35.028 61.7237848,35.9048308 61.7237848,37.0181538 C61.7237848,37.2559385 61.6783987,37.5021231 61.6336519,37.6300615 L58.7615443,37.6300615 C58.7883924,38.4791077 59.186,38.9818154 59.845057,38.9818154 C60.3059494,38.9818154 60.6313228,38.7711692 60.7572532,38.2691077 L60.7572532,38.2691077 Z" id="Fill-12"></path>
            <path d="M65.5362152,35.1372 L66.6210063,35.1372 L64.9493924,39.9122769 C64.4891392,41.2091077 63.9560127,41.6472 63.125,41.6472 C62.7996266,41.6472 62.5017405,41.5464 62.3125253,41.4281538 L62.5017405,40.5700615 C62.6826456,40.698 62.8271139,40.7613231 63.0342278,40.7613231 C63.4139367,40.7613231 63.5942025,40.5791077 63.8383924,39.8941846 L62.1770063,35.1372 L63.3512911,35.1372 L64.4169051,38.6251385 L64.4348038,38.6251385 L65.5362152,35.1372" id="Fill-13"></path>
            <polyline id="Fill-14" points="70.7946076 38.3421231 70.0633165 38.3421231 68.626943 35.3388 68.6090443 35.3388 68.6179937 36.498 68.6179937 39.7300615 67.515943 39.7300615 67.515943 33.6310154 68.7988987 33.6310154 70.4423861 37.0452923 70.4609241 37.0452923 72.1044114 33.6310154 73.3413418 33.6310154 73.3413418 39.7300615 72.2399304 39.7300615 72.2399304 36.498 72.2488797 35.3388 72.230981 35.3388 70.7946076 38.3421231"></polyline>
            <path d="M76.5867658,35.868 C75.8912722,35.868 75.548,36.4159385 75.548,37.4291077 C75.548,38.4513231 75.8912722,38.9992615 76.5867658,38.9992615 C77.2816203,38.9992615 77.634481,38.4513231 77.634481,37.4291077 C77.634481,36.4159385 77.2816203,35.868 76.5867658,35.868 Z M76.5867658,39.8399077 C75.3044494,39.8399077 74.4280506,38.9721231 74.4280506,37.4291077 C74.4280506,35.8951385 75.3044494,35.028 76.5867658,35.028 C77.8780316,35.028 78.745481,35.8951385 78.745481,37.4291077 C78.745481,38.9721231 77.8780316,39.8399077 76.5867658,39.8399077 L76.5867658,39.8399077 Z" id="Fill-15"></path>
            <path d="M80.8428291,36.0230769 C81.0774304,35.3840308 81.6284557,35.028 82.3239494,35.028 C83.154962,35.028 83.7424241,35.5578462 83.7424241,36.5160923 L83.7424241,39.7300615 L82.6218354,39.7300615 L82.6218354,36.8262462 C82.6218354,36.3157846 82.3961835,35.9772 81.8815949,35.9772 C81.3484684,35.9772 80.9054747,36.3060923 80.9054747,37.1551385 L80.9054747,39.7300615 L79.7951139,39.7300615 L79.7951139,35.1372 L80.7073101,35.1372 L80.8428291,36.0230769" id="Fill-16"></path>
            <polyline id="Fill-17" points="89.2533165 39.7300615 87.9531013 39.7300615 86.4713418 37.7030769 86.137019 37.7030769 86.137019 39.7300615 85.0266582 39.7300615 85.0266582 33.1386462 86.137019 33.1386462 86.137019 36.8721231 86.4898797 36.8721231 87.8348418 35.1372 89.0909494 35.1372 87.4378734 37.2462462 89.2533165 39.7300615"></polyline>
            <path d="M92.516,37.0091077 C92.5243101,36.9367385 92.5243101,36.8449846 92.5243101,36.7810154 C92.5243101,36.2692615 92.2353734,35.8402154 91.6849873,35.8402154 C91.0885759,35.8402154 90.7088671,36.2789538 90.6366329,37.0091077 L92.516,37.0091077 Z M92.6150823,38.2691077 L93.5362278,38.5702154 C93.292038,39.4651385 92.5338987,39.8399077 91.6932975,39.8399077 C90.3841329,39.8399077 89.5531203,38.9818154 89.5531203,37.4659385 C89.5531203,35.9681538 90.3841329,35.028 91.7028861,35.028 C92.9404557,35.028 93.5816139,35.9048308 93.5816139,37.0181538 C93.5816139,37.2559385 93.5362278,37.5021231 93.491481,37.6300615 L90.6193734,37.6300615 C90.6462215,38.4791077 91.0438291,38.9818154 91.7028861,38.9818154 C92.1637785,38.9818154 92.4891519,38.7711692 92.6150823,38.2691077 L92.6150823,38.2691077 Z" id="Fill-18"></path>
            <path d="M97.3940443,35.1372 L98.4788354,35.1372 L96.8072215,39.9122769 C96.3469684,41.2091077 95.8138418,41.6472 94.9828291,41.6472 C94.6574557,41.6472 94.3595696,41.5464 94.1697152,41.4281538 L94.3595696,40.5700615 C94.5404747,40.698 94.684943,40.7613231 94.892057,40.7613231 C95.2717658,40.7613231 95.4526709,40.5791077 95.6962215,39.8941846 L94.0348354,35.1372 L95.208481,35.1372 L96.2740949,38.6251385 L96.2926329,38.6251385 L97.3940443,35.1372" id="Fill-19"></path>
        </g>
    </g>
</svg>